<?xml version="1.0" encoding="UTF-8"?><svg id="a" xmlns="http://www.w3.org/2000/svg" viewBox="0 0 95.18 91.15"><defs><style>.b,.c{fill:#fff;}.c{opacity:.3;}</style></defs><path class="c" d="M85.12,47.14v-.02c0-6.97-1.91-13.5-5.23-19.09l8.28-7.33-8.59-9.7-8.14,7.2c-4.9-4.02-10.85-6.83-17.37-7.94V0h-12.96V10.3c-6.48,1.16-12.37,3.98-17.24,8.01l-8.27-7.32L7.02,20.7l8.46,7.48c-3.26,5.54-5.14,12-5.14,18.9L0,49.25l2.66,12.68,9.9-2.07c.89,2.46,2.04,4.8,3.4,6.99,.2,.32,.41,.64,.62,.96-.54-.84-1.04-1.7-1.5-2.58,.94-.69,1.93-1.41,2.97-2.16,.76-.58,1.39-.25,2.02-.01,4.48-6.24,5.73-8.16,6.45-8.74-.86-2.38-1.33-4.94-1.33-7.61,0-12.38,10.03-22.41,22.41-22.41s22.41,10.03,22.41,22.41c0,2.9-.55,5.66-1.55,8.2,.95,1,2.03,2.15,3.29,3.48,3.06,0,3.56-.13,4.12,.65,1.23,1.62,2.88,3.68,4.64,5.8l.09,.11c.45-.83,.87-1.68,1.26-2.54,.37-.82,.71-1.65,1.02-2.5l9.65,2.02,2.66-12.68-10.06-2.11Z"/><path class="b" d="M72.29,75.63c.45-.4,.89-.81,1.32-1.22,2.81-2.73,5.19-5.91,7.02-9.42l-.04-.04-.09-.11c-1.76-2.12-3.41-4.18-4.64-5.8-.56-.78-1.07-.65-4.12-.65-1.26-1.33-2.35-2.48-3.29-3.48-6.21-6.58-6.24-6.71-7.1-6.71-.53,0-.64,.16-2.36,1.31-11.32-12.97-10.89-13.01-12.08-12.76-1.14,.11-.98,.38-6.3,12.72-3.09-3.97-3.39-5.09-4.52-5.31-.58-.12-1.21,.11-1.61,.74l-6.06,9.65c-.33-.31-.58-.4-.93-.44-.4-.02-.63-.06-.97,.22-.72,.57-1.97,2.5-6.45,8.74-.63-.24-1.26-.56-2.02,.01-1.04,.75-2.03,1.47-2.97,2.16,.47,.88,.97,1.74,1.5,2.58,.46,.73,.96,1.43,1.47,2.12,1.19,1.6,2.5,3.09,3.92,4.48,.43,.42,.87,.83,1.32,1.22,.16,.14,.32,.28,.49,.42l-4.74,9.11,11.49,5.99,4.44-8.53c3.99,1.47,8.31,2.28,12.81,2.28s8.58-.76,12.48-2.16l4.38,8.41,11.49-5.99-4.62-8.88c.26-.22,.51-.43,.76-.66Zm-10.97-26.17c.2-.07,6.06,6.16,6.06,6.16l-3.13,2.02-3.03-8.11c.06-.04,.03-.02,.11-.07Zm-14.22-11.46h0c.3-.07-.33-.56,11.66,13.17l-9.05-1.72-1.32-3.79-2.01-1.83,.71-5.84Zm-6.16,13.89l5,5.18,3.65,1.2,1.51,5.61h0l.2,.15c5.84,4.29,3.88,3.04,8.93,5.65l-13.86-2.78h-4.6l-.19-3.59-2.96-2.52-2.8-15.4c.52,.1,1.53,2.13,5.1,6.5Z"/></svg>